# xmcd
#
# Track frame offsets: 
#        150
#        13859
#        27196
#        41696
#        56816
#        74878
#        85523
#        100392
#        115285
#        129987
#        145916
#
# Disc length: 2147 seconds
#
# Revision: 0
# Processed by: cddbd v1.5.2PL0 Copyright (c) Steve Scherf et al.
# Submitted via: ExactAudioCopy v1.0b3
#
DISCID=9c08610b
DTITLE=Dallas Smith - Lifted
DYEAR=2014
DGENRE=Country
TTITLE0=Wastin' Gas
TTITLE1=Tippin' Point
TTITLE2=Cheap Seats
TTITLE3=Lifted
TTITLE4=Heat Rises
TTITLE5=Thinkin' 'Bout You
TTITLE6=Slow Rollin'
TTITLE7=Just Say When
TTITLE8=A Girl like You
TTITLE9=Wrong About That
TTITLE10=This Town Ain't a Town
EXTD=
EXTT0=
EXTT1=
EXTT2=
EXTT3=
EXTT4=
EXTT5=
EXTT6=
EXTT7=
EXTT8=
EXTT9=
EXTT10=
PLAYORDER=
